<svg width="25" height="25" viewBox="0 0 25 25" fill="none" xmlns="http://www.w3.org/2000/svg">
<g clip-path="url(#clip0_6706_73171)">
<g clip-path="url(#clip1_6706_73171)">
<path d="M6.75 2.5625C5.90016 2.5625 5.0694 2.81451 4.36279 3.28665C3.65617 3.7588 3.10543 4.42988 2.78021 5.21503C2.45499 6.00018 2.36989 6.86414 2.53569 7.69765C2.70149 8.53117 3.11072 9.2968 3.71165 9.89773C4.31258 10.4987 5.07821 10.9079 5.91172 11.0737C6.74524 11.2395 7.60919 11.1544 8.39435 10.8292C9.1795 10.5039 9.85058 9.95321 10.3227 9.24659C10.7949 8.53997 11.0469 7.70922 11.0469 6.85938C11.0456 5.72017 10.5925 4.62799 9.78692 3.82245C8.98138 3.01691 7.88921 2.56379 6.75 2.5625ZM6.75 10.375C6.05468 10.375 5.37497 10.1688 4.79683 9.78251C4.21868 9.39621 3.76808 8.84714 3.50199 8.20475C3.2359 7.56235 3.16628 6.85548 3.30193 6.17351C3.43758 5.49155 3.77241 4.86512 4.26408 4.37345C4.75575 3.88178 5.38217 3.54695 6.06414 3.4113C6.7461 3.27565 7.45298 3.34527 8.09537 3.61136C8.73777 3.87745 9.28684 4.32806 9.67314 4.9062C10.0594 5.48434 10.2656 6.16405 10.2656 6.85938C10.2646 7.79146 9.89385 8.68506 9.23477 9.34414C8.57569 10.0032 7.68208 10.374 6.75 10.375Z" fill="#F0F0F0"/>
<path d="M7.53125 6.07812C7.63485 6.07812 7.73421 6.03697 7.80746 5.96371C7.88072 5.89046 7.92188 5.7911 7.92188 5.6875C7.92188 5.5839 7.88072 5.48454 7.80746 5.41129C7.73421 5.33803 7.63485 5.29688 7.53125 5.29688H7.14062C7.14062 5.19327 7.09947 5.09392 7.02621 5.02066C6.95296 4.94741 6.8536 4.90625 6.75 4.90625C6.6464 4.90625 6.54704 4.94741 6.47379 5.02066C6.40053 5.09392 6.35938 5.19327 6.35938 5.29688H5.96875C5.86515 5.29688 5.76579 5.33803 5.69254 5.41129C5.61928 5.48454 5.57812 5.5839 5.57812 5.6875V6.85938C5.57812 6.96298 5.61928 7.06233 5.69254 7.13559C5.76579 7.20885 5.86515 7.25 5.96875 7.25H7.14062V7.64062H5.96875C5.86515 7.64062 5.76579 7.68178 5.69254 7.75504C5.61928 7.82829 5.57812 7.92765 5.57812 8.03125C5.57812 8.13485 5.61928 8.23421 5.69254 8.30746C5.76579 8.38072 5.86515 8.42188 5.96875 8.42188H6.35938C6.35938 8.52548 6.40053 8.62483 6.47379 8.69809C6.54704 8.77135 6.6464 8.8125 6.75 8.8125C6.8536 8.8125 6.95296 8.77135 7.02621 8.69809C7.09947 8.62483 7.14062 8.52548 7.14062 8.42188H7.53125C7.63485 8.42188 7.73421 8.38072 7.80746 8.30746C7.88072 8.23421 7.92188 8.13485 7.92188 8.03125V6.85938C7.92188 6.75577 7.88072 6.65642 7.80746 6.58316C7.73421 6.50991 7.63485 6.46875 7.53125 6.46875H6.35938V6.07812H7.53125Z" fill="#F0F0F0"/>
<path d="M11.2422 1H2.25781C1.89534 1.00041 1.54783 1.14459 1.29152 1.4009C1.03521 1.6572 0.891039 2.00471 0.890625 2.36719V11.3516C0.891039 11.714 1.03521 12.0615 1.29152 12.3179C1.54783 12.5742 1.89534 12.7183 2.25781 12.7188H11.2422C11.6047 12.7183 11.9522 12.5742 12.2085 12.3179C12.4648 12.0615 12.609 11.714 12.6094 11.3516V2.36719C12.609 2.00471 12.4648 1.6572 12.2085 1.4009C11.9522 1.14459 11.6047 1.00041 11.2422 1ZM11.8281 11.3516C11.828 11.5069 11.7662 11.6558 11.6563 11.7657C11.5465 11.8755 11.3975 11.9373 11.2422 11.9375H2.25781C2.10246 11.9373 1.95353 11.8755 1.84368 11.7657C1.73383 11.6558 1.67204 11.5069 1.67188 11.3516V2.36719C1.67204 2.21184 1.73383 2.0629 1.84368 1.95305C1.95353 1.8432 2.10246 1.78142 2.25781 1.78125H11.2422C11.3975 1.78142 11.5465 1.8432 11.6563 1.95305C11.7662 2.0629 11.828 2.21184 11.8281 2.36719V11.3516Z" fill="#F0F0F0"/>
<path d="M23.7422 1H14.7578C14.3953 1.00041 14.0478 1.14459 13.7915 1.4009C13.5352 1.6572 13.391 2.00471 13.3906 2.36719V11.3516C13.391 11.714 13.5352 12.0615 13.7915 12.3179C14.0478 12.5742 14.3953 12.7183 14.7578 12.7188H23.7422C24.1047 12.7183 24.4522 12.5742 24.7085 12.3179C24.9648 12.0615 25.109 11.714 25.1094 11.3516V2.36719C25.109 2.00471 24.9648 1.6572 24.7085 1.4009C24.4522 1.14459 24.1047 1.00041 23.7422 1ZM24.3281 11.3516C24.328 11.5069 24.2662 11.6558 24.1563 11.7657C24.0465 11.8755 23.8975 11.9373 23.7422 11.9375H14.7578C14.6025 11.9373 14.4535 11.8755 14.3437 11.7657C14.2338 11.6558 14.172 11.5069 14.1719 11.3516V2.36719C14.172 2.21184 14.2338 2.0629 14.3437 1.95305C14.4535 1.8432 14.6025 1.78142 14.7578 1.78125H23.7422C23.8975 1.78142 24.0465 1.8432 24.1563 1.95305C24.2662 2.0629 24.328 2.21184 24.3281 2.36719V11.3516Z" fill="#F0F0F0"/>
<path d="M10.8516 13.5H1.86719C1.50471 13.5004 1.1572 13.6446 0.900897 13.9009C0.644589 14.1572 0.500414 14.5047 0.5 14.8672V23.8516C0.500414 24.214 0.644589 24.5615 0.900897 24.8179C1.1572 25.0742 1.50471 25.2183 1.86719 25.2188H10.8516C11.214 25.2183 11.5615 25.0742 11.8179 24.8179C12.0742 24.5615 12.2183 24.214 12.2188 23.8516V14.8672C12.2183 14.5047 12.0742 14.1572 11.8179 13.9009C11.5615 13.6446 11.214 13.5004 10.8516 13.5ZM11.4375 23.8516C11.4373 24.0069 11.3755 24.1558 11.2657 24.2657C11.1558 24.3755 11.0069 24.4373 10.8516 24.4375H1.86719C1.71184 24.4373 1.5629 24.3755 1.45305 24.2657C1.3432 24.1558 1.28142 24.0069 1.28125 23.8516V14.8672C1.28142 14.7118 1.3432 14.5629 1.45305 14.4531C1.5629 14.3432 1.71184 14.2814 1.86719 14.2812H10.8516C11.0069 14.2814 11.1558 14.3432 11.2657 14.4531C11.3755 14.5629 11.4373 14.7118 11.4375 14.8672V23.8516Z" fill="#F0F0F0"/>
<path d="M23.3516 13.5H14.3672C14.0047 13.5004 13.6572 13.6446 13.4009 13.9009C13.1446 14.1572 13.0004 14.5047 13 14.8672V23.8516C13.0004 24.214 13.1446 24.5616 13.4009 24.8179C13.6572 25.0742 14.0047 25.2183 14.3672 25.2188H23.3516C23.714 25.2183 24.0616 25.0742 24.3179 24.8179C24.5742 24.5616 24.7183 24.214 24.7188 23.8516V14.8672C24.7183 14.5047 24.5742 14.1572 24.3179 13.9009C24.0616 13.6446 23.714 13.5004 23.3516 13.5ZM23.9375 23.8516C23.9374 24.0069 23.8756 24.1559 23.7657 24.2657C23.6559 24.3756 23.5069 24.4374 23.3516 24.4375H14.3672C14.2118 24.4374 14.0629 24.3756 13.953 24.2657C13.8432 24.1559 13.7814 24.0069 13.7812 23.8516V14.8672C13.7814 14.7118 13.8432 14.5629 13.953 14.453C14.0629 14.3432 14.2118 14.2814 14.3672 14.2812H23.3516C23.5069 14.2814 23.6559 14.3432 23.7657 14.453C23.8756 14.5629 23.9374 14.7118 23.9375 14.8672V23.8516Z" fill="#F0F0F0"/>
<path d="M21.5924 18.155C21.5842 18.0574 21.5397 17.9664 21.4676 17.9C21.3955 17.8337 21.3011 17.7969 21.2031 17.7969H20.4219V17.2109C20.4214 16.8485 20.2773 16.501 20.021 16.2446C19.7647 15.9883 19.4171 15.8442 19.0547 15.8438H18.664C18.3016 15.8442 17.9541 15.9883 17.6978 16.2446C17.4414 16.501 17.2973 16.8485 17.2969 17.2109V17.7969H16.5156C16.4176 17.7969 16.3232 17.8337 16.2511 17.9C16.179 17.9664 16.1345 18.0574 16.1264 18.155L15.7357 22.8425C15.7312 22.8964 15.738 22.9506 15.7555 23.0017C15.773 23.0528 15.8009 23.0997 15.8375 23.1395C15.8741 23.1792 15.9185 23.211 15.968 23.2327C16.0175 23.2544 16.071 23.2656 16.125 23.2656H21.5937C21.6478 23.2656 21.7012 23.2544 21.7507 23.2327C21.8002 23.211 21.8446 23.1792 21.8812 23.1395C21.9178 23.0997 21.9457 23.0528 21.9632 23.0017C21.9808 22.9506 21.9875 22.8964 21.983 22.8425L21.5924 18.155ZM18.0781 17.2109C18.0783 17.0556 18.1401 16.9067 18.2499 16.7968C18.3598 16.687 18.5087 16.6252 18.664 16.625H19.0547C19.21 16.6252 19.359 16.687 19.4688 16.7968C19.5787 16.9067 19.6404 17.0556 19.6406 17.2109V17.7969H18.0781V17.2109ZM16.5495 22.4844L16.875 18.5781H17.2969V18.9688C17.2969 19.0724 17.338 19.1717 17.4113 19.245C17.4845 19.3182 17.5839 19.3594 17.6875 19.3594C17.7911 19.3594 17.8904 19.3182 17.9637 19.245C18.037 19.1717 18.0781 19.0724 18.0781 18.9688V18.5781H19.6406V18.9688C19.6406 19.0724 19.6818 19.1717 19.755 19.245C19.8283 19.3182 19.9276 19.3594 20.0312 19.3594C20.1348 19.3594 20.2342 19.3182 20.3074 19.245C20.3807 19.1717 20.4219 19.0724 20.4219 18.9688V18.5781H20.8437L21.1692 22.4844H16.5495Z" fill="#F0F0F0"/>
</g>
</g>
<defs>
<clipPath id="clip0_6706_73171">
<rect width="25" height="25" fill="white"/>
</clipPath>
<clipPath id="clip1_6706_73171">
<rect width="25" height="25" fill="white" transform="translate(0.5)"/>
</clipPath>
</defs>
</svg>
