<svg width="26" height="25" viewBox="0 0 26 25" fill="none" xmlns="http://www.w3.org/2000/svg">
<g clip-path="url(#clip0_6706_73234)">
<path d="M13 0C6.09646 0 0.5 5.59646 0.5 12.5C0.5 19.4035 6.09646 25 13 25C19.9003 24.9922 25.4922 19.4003 25.5 12.5C25.5 5.59646 19.9035 0 13 0ZM13 24.1667C6.55667 24.1667 1.33333 18.9433 1.33333 12.5C1.33333 6.05667 6.55667 0.833333 13 0.833333C19.4403 0.840677 24.6593 6.05974 24.6667 12.5C24.6667 18.9433 19.4433 24.1667 13 24.1667Z" fill="#F0F0F0"/>
<path d="M16.75 6.25C15.3693 6.25 14.25 7.36927 14.25 8.75C14.25 10.1307 15.3693 11.25 16.75 11.25C18.1302 11.2486 19.2486 10.1302 19.25 8.75C19.25 7.36927 18.1307 6.25 16.75 6.25ZM16.75 10.4167C15.8295 10.4167 15.0833 9.67047 15.0833 8.75C15.0833 7.82953 15.8295 7.08333 16.75 7.08333C17.6705 7.08333 18.4167 7.82953 18.4167 8.75C18.4167 9.67047 17.6705 10.4167 16.75 10.4167Z" fill="#F0F0F0"/>
<path d="M16.75 13.75C15.3693 13.75 14.25 14.8693 14.25 16.25C14.25 17.6307 15.3693 18.75 16.75 18.75C18.1302 18.7486 19.2486 17.6302 19.25 16.25C19.25 14.8693 18.1307 13.75 16.75 13.75ZM16.75 17.9167C15.8295 17.9167 15.0833 17.1705 15.0833 16.25C15.0833 15.3295 15.8295 14.5833 16.75 14.5833C17.6705 14.5833 18.4167 15.3295 18.4167 16.25C18.4167 17.1705 17.6705 17.9167 16.75 17.9167Z" fill="#F0F0F0"/>
<path d="M9.25 6.25C7.86927 6.25 6.75 7.36927 6.75 8.75C6.75 10.1307 7.86927 11.25 9.25 11.25C10.6302 11.2486 11.7486 10.1302 11.75 8.75C11.75 7.36927 10.6307 6.25 9.25 6.25ZM9.25 10.4167C8.32953 10.4167 7.58333 9.67047 7.58333 8.75C7.58333 7.82953 8.32953 7.08333 9.25 7.08333C10.1705 7.08333 10.9167 7.82953 10.9167 8.75C10.9167 9.67047 10.1705 10.4167 9.25 10.4167Z" fill="#F0F0F0"/>
<path d="M9.25 13.75C7.86927 13.75 6.75 14.8693 6.75 16.25C6.75 17.6307 7.86927 18.75 9.25 18.75C10.6302 18.7486 11.7486 17.6302 11.75 16.25C11.75 14.8693 10.6307 13.75 9.25 13.75ZM9.25 17.9167C8.32953 17.9167 7.58333 17.1705 7.58333 16.25C7.58333 15.3295 8.32953 14.5833 9.25 14.5833C10.1705 14.5833 10.9167 15.3295 10.9167 16.25C10.9167 17.1705 10.1705 17.9167 9.25 17.9167Z" fill="#F0F0F0"/>
</g>
<defs>
<clipPath id="clip0_6706_73234">
<rect width="25" height="25" fill="white" transform="translate(0.5)"/>
</clipPath>
</defs>
</svg>
