<svg width="26" height="25" viewBox="0 0 26 25" fill="none" xmlns="http://www.w3.org/2000/svg">
<g clip-path="url(#clip0_6706_73184)">
<path d="M13.776 0L5.44273 0C4.29395 0 3.35938 0.93457 3.35938 2.08335V17.0834C3.35938 18.2321 4.29395 19.1667 5.44273 19.1667H12.9427V18.3334H5.44273C4.75356 18.3334 4.19272 17.7725 4.19272 17.0834V2.08335C4.19272 1.39419 4.75356 0.83335 5.44273 0.83335H13.7761C14.4652 0.83335 15.0261 1.39419 15.0261 2.08335V14.1667H15.8594V2.08335C15.8594 0.93457 14.9248 0 13.776 0Z" fill="#F0F0F0"/>
<path d="M19.8558 11.0986L15.7683 5.99023L15.117 6.51108L19.2045 11.619C19.7349 12.2815 20.0266 13.114 20.0262 13.9627V24.1669H13.9304C11.7779 24.1669 10.0262 22.4156 10.0262 20.2627V18.7502H9.19287V20.2627C9.19287 22.8748 11.3183 25.0002 13.9304 25.0002H20.4429C20.6733 25.0002 20.8595 24.814 20.8595 24.5836V13.9632C20.8599 12.9265 20.5037 11.909 19.8558 11.0986Z" fill="#F0F0F0"/>
<path d="M10.4409 9.82626C10.7334 9.83461 11.0055 9.95624 11.2059 10.1687L16.8055 16.1187L17.4126 15.5475L11.8121 9.59706C11.4584 9.22245 10.9796 9.0079 10.4646 8.9933C9.94421 8.97582 9.45964 9.16537 9.08962 9.51498C9.08503 9.51957 9.05168 9.55121 9.04753 9.5558C8.33547 10.27 8.28752 11.3908 8.93713 12.165L12.5259 16.4025V17.6916C12.5255 19.9941 13.9734 22.0829 16.1297 22.8904L16.4222 22.1099C14.5896 21.4237 13.3588 19.6483 13.3592 17.6916V16.25C13.3592 16.1516 13.3242 16.0558 13.2605 15.9804L9.57424 11.6275C9.20549 11.1883 9.23259 10.5504 9.65759 10.125C9.87004 9.92416 10.1475 9.82455 10.4409 9.82626Z" fill="#F0F0F0"/>
<path d="M13.7498 0.833008H12.9165V11.2497H13.7498V0.833008Z" fill="#F0F0F0"/>
<path d="M11.2762 13.75H10.4429V18.75H11.2762V13.75Z" fill="#F0F0F0"/>
<path d="M11.6668 0.416992H10.8335V9.58364H11.6668V0.416992Z" fill="#F0F0F0"/>
<path d="M4.66684 2.08301H3.8335V7.49966H4.66684V2.08301Z" fill="#F0F0F0"/>
<path d="M6.74985 2.08301H5.9165V5.41636H6.74985V2.08301Z" fill="#F0F0F0"/>
<path d="M8.35952 13.75H5.85952C5.62954 13.75 5.44287 13.9362 5.44287 14.1667V16.6667C5.44287 16.8971 5.62954 17.0833 5.85952 17.0833H8.35952C8.5895 17.0833 8.77617 16.8971 8.77617 16.6667V14.1667C8.77617 13.9362 8.5895 13.75 8.35952 13.75ZM7.94287 16.25H6.27622V14.5833H7.94287V16.25Z" fill="#F0F0F0"/>
</g>
<defs>
<clipPath id="clip0_6706_73184">
<rect width="25" height="25" fill="white" transform="translate(0.5)"/>
</clipPath>
</defs>
</svg>
