<svg width="25" height="25" viewBox="0 0 25 25" fill="none" xmlns="http://www.w3.org/2000/svg">
<g clip-path="url(#clip0_6706_73216)">
<path d="M12.2125 15.2871C11.9927 15.2871 11.8145 15.4653 11.8145 15.6852V16.5343C11.8145 16.7542 11.9927 16.9324 12.2125 16.9324C12.4324 16.9324 12.6106 16.7542 12.6106 16.5343V15.6852C12.6106 15.4653 12.4324 15.2871 12.2125 15.2871Z" fill="#F0F0F0"/>
<path d="M24.259 9.58274C24.1036 9.42737 23.8971 9.34182 23.6773 9.34182C23.6773 9.34182 23.6772 9.34182 23.6772 9.34182L22.6553 9.34197C22.6423 9.34197 22.6334 9.32742 22.6307 9.31394C22.3498 7.93611 21.7199 6.63719 20.8089 5.5575C19.9285 4.51394 18.8008 3.69324 17.5433 3.17776C17.3405 2.32151 16.9122 1.4387 16.0676 0.775077C15.25 0.132597 14.4264 0.00896409 14.3918 0.00398362C14.2777 -0.0122761 14.1619 0.0217082 14.0747 0.0973429C13.9875 0.172978 13.9374 0.282646 13.9374 0.398075V2.54778H12.4927C12.1356 1.32268 11.0034 0.424638 9.6646 0.424638C8.29736 0.424638 7.14492 1.36101 6.81421 2.62605C4.84585 2.89417 3.03491 3.84778 1.69116 5.33045C0.278174 6.88968 -0.5 8.90804 -0.5 11.0138C-0.5 15.7405 1.95386 19.5863 2.70601 20.6524C2.93833 20.9817 3.31885 21.1784 3.72388 21.1784H5.41826C6.10605 21.1784 6.66563 20.6188 6.66563 19.931V19.38C7.09438 19.446 7.52998 19.4799 7.96606 19.4799H11.8143V19.931C11.8143 20.6188 12.3738 21.1784 13.0616 21.1784H14.9228C15.5071 21.1784 16.02 20.7637 16.1424 20.1924L16.3467 19.2391C18.9631 18.6019 21.0668 16.7664 22.1022 14.3844H23.6773C24.131 14.3844 24.5 14.0154 24.5 13.5617V10.1646C24.5 9.94475 24.4145 9.73816 24.259 9.58274ZM9.66455 1.22088C10.8499 1.22088 11.8142 2.18523 11.8142 3.37058C11.8142 3.67371 11.7493 3.97229 11.6271 4.24637H7.702C7.57979 3.9722 7.51484 3.67371 7.51484 3.37058C7.51484 2.18518 8.4792 1.22088 9.66455 1.22088ZM23.7038 13.5616C23.7038 13.5762 23.6919 13.5882 23.6772 13.5882H22.4015C22.6183 12.9093 22.7518 12.1953 22.7899 11.4591C22.8014 11.2395 22.6326 11.0523 22.413 11.0409C22.1934 11.0298 22.0062 11.1983 21.9948 11.4178C21.8262 14.6694 19.6131 17.4456 16.5343 18.3637L17.0905 15.7683C17.1366 15.5533 16.9996 15.3417 16.7846 15.2956C16.5698 15.2494 16.358 15.3865 16.312 15.6015L15.3639 20.0255C15.3196 20.2322 15.1341 20.3822 14.9228 20.3822H13.0615C12.8127 20.3822 12.6104 20.1798 12.6104 19.931V18.2324C12.6104 18.0126 12.4321 17.8344 12.2123 17.8344C11.9924 17.8344 11.8142 18.0126 11.8142 18.2324V18.6836H7.96597C7.5292 18.6836 7.09321 18.6461 6.66553 18.5732V15.6847C6.66553 15.4649 6.4873 15.2866 6.26743 15.2866C6.04756 15.2866 5.86934 15.4649 5.86934 15.6847V19.931C5.86934 20.1798 5.66694 20.3822 5.41816 20.3822H3.72388C3.57505 20.3822 3.44116 20.3134 3.35659 20.1934C2.63867 19.1757 0.296191 15.5061 0.296191 11.0138C0.296191 9.10599 1.00112 7.27747 2.2811 5.86512C3.45249 4.57249 5.01543 3.72386 6.71992 3.44515C6.72681 3.71795 6.77153 3.98767 6.85181 4.24627H6.69214C6.47227 4.24627 6.29404 4.42449 6.29404 4.64436C6.29404 4.86424 6.47227 5.04246 6.69214 5.04246H12.637C12.8568 5.04246 13.0351 4.86424 13.0351 4.64436C13.0351 4.42449 12.8568 4.24627 12.637 4.24627H12.4772C12.5649 3.96409 12.6104 3.66873 12.6104 3.37049C12.6104 3.36155 12.6098 3.35281 12.6097 3.34392H13.9374V4.21971C13.9374 4.43958 14.1156 4.6178 14.3354 4.6178C14.5553 4.6178 14.7335 4.43958 14.7335 4.21971V0.92078C15.4889 1.20662 16.9098 2.0846 16.9098 4.64441C16.9098 4.86429 17.088 5.04251 17.3079 5.04251C17.5277 5.04251 17.706 4.86429 17.706 4.64441C17.706 4.47576 17.6999 4.29768 17.6859 4.11365C18.6462 4.58142 19.5077 5.24998 20.2004 6.07102C21.0256 7.0491 21.5962 8.22547 21.8506 9.47303C21.9291 9.85852 22.2676 10.1383 22.6554 10.1382L23.6773 10.1381C23.68 10.1381 23.6883 10.1381 23.6961 10.1459C23.7039 10.1536 23.7039 10.1618 23.7039 10.1646V13.5616H23.7038Z" fill="#F0F0F0"/>
<path d="M20.2286 9.60049C19.9815 8.9376 19.3275 8.49219 18.6013 8.49219C17.8751 8.49219 17.2211 8.93755 16.9739 9.60049C16.8971 9.80649 17.0019 10.0357 17.2079 10.1125C17.4139 10.1895 17.6432 10.0846 17.7199 9.87861C17.8516 9.52559 18.2058 9.28838 18.6013 9.28838C18.9968 9.28838 19.351 9.52559 19.4826 9.87861C19.5423 10.0388 19.6942 10.1377 19.8556 10.1377C19.9019 10.1377 19.9489 10.1296 19.9947 10.1125C20.2007 10.0357 20.3054 9.80645 20.2286 9.60049Z" fill="#F0F0F0"/>
<path d="M10.0629 10.7099V8.67554C10.8438 8.77046 11.3898 9.13227 11.3898 9.46094C11.3898 9.68081 11.5681 9.85903 11.7879 9.85903C12.0078 9.85903 12.186 9.68081 12.186 9.46094C12.186 8.64707 11.2811 7.99272 10.0629 7.87451V7.82876C10.0629 7.60889 9.88467 7.43066 9.66479 7.43066C9.44492 7.43066 9.2667 7.60889 9.2667 7.82876V7.87451C8.04853 7.99272 7.14355 8.64707 7.14355 9.46094C7.14355 10.6234 8.29199 11.0429 9.2667 11.317V13.3514C8.48574 13.2565 7.93975 12.8947 7.93975 12.566C7.93975 12.3461 7.76152 12.1679 7.54165 12.1679C7.32178 12.1679 7.14355 12.3461 7.14355 12.566C7.14355 13.3799 8.04853 14.0342 9.2667 14.1524V14.1982C9.2667 14.4181 9.44492 14.5963 9.66479 14.5963C9.88467 14.5963 10.0629 14.4181 10.0629 14.1982V14.1524C11.2811 14.0342 12.186 13.3799 12.186 12.566C12.186 11.4035 11.0375 10.984 10.0629 10.7099ZM9.2667 10.4835C8.28623 10.176 7.93975 9.89648 7.93975 9.46094C7.93975 9.13227 8.48574 8.77046 9.2667 8.67554V10.4835ZM10.0629 13.3515V11.5435C11.0434 11.851 11.3898 12.1305 11.3898 12.5661C11.3898 12.8947 10.8438 13.2565 10.0629 13.3515Z" fill="#F0F0F0"/>
</g>
<defs>
<clipPath id="clip0_6706_73216">
<rect width="25" height="25" fill="white"/>
</clipPath>
</defs>
</svg>
