<svg width="26" height="25" viewBox="0 0 26 25" fill="none" xmlns="http://www.w3.org/2000/svg">
<g clip-path="url(#clip0_6706_73165)">
<path d="M9.51982 15.3089C9.66284 15.4519 9.89473 15.4519 10.0377 15.3089L13.3088 12.0377V12.8078C13.3088 13.01 13.4728 13.174 13.675 13.174C13.8773 13.174 14.0413 13.01 14.0413 12.8078V11.4561C14.0413 11.2566 13.9222 11.0784 13.7378 11.002C13.5536 10.9257 13.3433 10.9675 13.2022 11.1086L9.51977 14.791C9.37681 14.934 9.37681 15.1659 9.51982 15.3089ZM11 1.99023C11.2022 1.99023 11.3662 1.82627 11.3662 1.62402C11.3662 1.42178 11.2022 1.25781 11 1.25781C10.7978 1.25781 10.6338 1.42178 10.6338 1.62402C10.6338 1.82627 10.7978 1.99023 11 1.99023ZM8.26216 13.998C8.44448 14.0735 8.65596 14.0333 8.79775 13.8914L12.4802 10.209C12.6232 10.066 12.6232 9.83408 12.4802 9.69111C12.3372 9.54809 12.1053 9.54809 11.9623 9.69111L8.69121 12.9623V12.1922C8.69121 11.99 8.52725 11.826 8.325 11.826C8.12275 11.826 7.95879 11.99 7.95879 12.1922V13.5439C7.95874 13.7434 8.07783 13.9216 8.26216 13.998ZM3.74854 14.8106C3.99346 14.8106 4.19268 15.0484 4.19268 15.3406C4.19268 15.5428 4.35664 15.7068 4.55889 15.7068C4.76113 15.7068 4.9251 15.5428 4.9251 15.3406C4.9251 14.6445 4.39731 14.0782 3.74854 14.0782H3.57451V13.766C3.57451 13.5637 3.41055 13.3998 3.2083 13.3998C3.00605 13.3998 2.84209 13.5637 2.84209 13.766V14.0782H2.66812C2.01934 14.0782 1.49155 14.6445 1.49155 15.3406V15.938C1.49155 16.6341 2.01938 17.2004 2.66816 17.2004H2.84209V18.8577H2.66812C2.42324 18.8577 2.22397 18.62 2.22397 18.3278C2.22397 18.1255 2.06001 17.9616 1.85776 17.9616C1.65552 17.9616 1.49155 18.1255 1.49155 18.3278C1.49155 19.0238 2.01934 19.5901 2.66812 19.5901H2.84209V19.9024C2.84209 20.1046 3.00605 20.2686 3.2083 20.2686C3.41055 20.2686 3.57451 20.1046 3.57451 19.9024V19.5901H3.74854C4.39731 19.5901 4.9251 19.0238 4.9251 18.3278V17.7303C4.9251 17.0342 4.39727 16.4679 3.74849 16.4679H3.57451V14.8106H3.74854ZM2.84209 16.4679H2.66812C2.42319 16.4679 2.22397 16.2302 2.22397 15.9379V15.3405C2.22397 15.0483 2.42324 14.8106 2.66812 14.8106H2.84209V16.4679ZM3.74854 17.2003C3.99346 17.2003 4.19268 17.4381 4.19268 17.7303V18.3278C4.19268 18.62 3.99346 18.8577 3.74854 18.8577H3.57451V17.2004L3.74854 17.2003ZM18.8857 3.55166V2.31934C18.8857 1.04048 17.8453 0 16.5664 0L5.43359 0C4.15474 0 3.11426 1.04048 3.11426 2.31934V12.22C0.561377 12.2693 -1.5 14.3201 -1.5 16.8342C-1.5 19.3483 0.561377 21.399 3.11426 21.4483V22.6807C3.11426 23.9595 4.15474 25 5.43359 25H16.5664C17.8453 25 18.8857 23.9595 18.8857 22.6807V12.78C21.4387 12.7307 23.5 10.6799 23.5 8.16582C23.5 5.65171 21.4387 3.60098 18.8857 3.55166ZM3.2083 20.7171C1.01602 20.7171 -0.767578 18.9752 -0.767578 16.8342C-0.767578 14.6931 1.01602 12.9512 3.2083 12.9512C5.40063 12.9512 7.18423 14.6931 7.18423 16.8342C7.18423 17.152 7.14463 17.4681 7.0666 17.7737C7.01655 17.9697 7.13481 18.1691 7.33081 18.2192C7.52671 18.2693 7.72622 18.151 7.77627 17.955C7.86943 17.5902 7.9167 17.2131 7.9167 16.8342C7.9167 15.0298 6.85479 13.4643 5.31157 12.7057V2.56348C5.31157 2.36152 5.47583 2.19727 5.67778 2.19727H7.023C7.02988 2.19727 7.03608 2.19995 7.04043 2.20425C7.04668 2.2105 7.04741 2.21719 7.04741 2.22168C7.04741 2.7876 7.50786 3.24805 8.07378 3.24805H9.53467C9.73691 3.24805 9.90088 3.08408 9.90088 2.88184C9.90088 2.67959 9.73691 2.51562 9.53467 2.51562H8.07373C7.91167 2.51562 7.77979 2.38374 7.77979 2.22168C7.77979 2.01929 7.70112 1.8292 7.55737 1.68545C7.41411 1.54316 7.22427 1.46484 7.02295 1.46484H5.67773C5.07192 1.46484 4.5791 1.95767 4.5791 2.56348V12.4185C4.34229 12.3477 4.09761 12.2949 3.84668 12.2614V2.31934C3.84668 1.44434 4.55859 0.732422 5.43359 0.732422H16.5664C17.4415 0.732422 18.1533 1.44434 18.1533 2.31934V3.59307C17.9024 3.62656 17.6577 3.67944 17.4209 3.7502V2.56348C17.4209 1.95767 16.928 1.46484 16.3223 1.46484H14.9771C14.5597 1.46484 14.2202 1.80435 14.2202 2.22168C14.2202 2.38374 14.0883 2.51562 13.9262 2.51562H11.2436C11.0414 2.51562 10.8774 2.67959 10.8774 2.88184C10.8774 3.08408 11.0414 3.24805 11.2436 3.24805H13.9262C14.4922 3.24805 14.9526 2.7876 14.9526 2.22168C14.9526 2.2082 14.9636 2.19727 14.9771 2.19727H16.3223C16.5242 2.19727 16.6885 2.36152 16.6885 2.56348V4.0374C15.1453 4.7959 14.0833 6.36147 14.0833 8.16582C14.0833 9.97017 15.1453 11.5357 16.6885 12.2943V22.4365C16.6885 22.6385 16.5242 22.8027 16.3223 22.8027H5.67773C5.47578 22.8027 5.31152 22.6385 5.31152 22.4365V20.9591C5.96338 20.639 6.54092 20.1719 6.98599 19.5863C7.10835 19.4252 7.07705 19.1955 6.91602 19.0731C6.75503 18.9508 6.52524 18.9821 6.40288 19.1431C5.65386 20.1287 4.45967 20.7171 3.2083 20.7171ZM18.1533 22.6807C18.1533 23.5557 17.4415 24.2676 16.5664 24.2676H5.43359C4.55859 24.2676 3.84668 23.5557 3.84668 22.6807V21.4057C4.09551 21.3718 4.34043 21.3186 4.5791 21.2468V22.4365C4.5791 23.0423 5.07192 23.5352 5.67773 23.5352H16.3223C16.928 23.5352 17.4209 23.0423 17.4209 22.4365V12.5815C17.6577 12.6523 17.9024 12.7051 18.1533 12.7386V22.6807ZM18.7916 12.0488C16.5994 12.0488 14.8158 10.3069 14.8158 8.16582C14.8158 6.02476 16.5993 4.28291 18.7916 4.28291C20.984 4.28291 22.7676 6.0248 22.7676 8.16582C22.7676 10.3069 20.984 12.0488 18.7916 12.0488ZM19.3319 6.14233C19.5768 6.14233 19.776 6.38008 19.776 6.67227C19.776 6.87451 19.9399 7.03848 20.1422 7.03848C20.3445 7.03848 20.5084 6.87451 20.5084 6.67227C20.5084 5.97622 19.9807 5.40991 19.3319 5.40991H19.1579V5.09766C19.1579 4.89541 18.994 4.73145 18.7917 4.73145C18.5894 4.73145 18.4255 4.89541 18.4255 5.09766V5.40991H18.2515C17.6028 5.40991 17.075 5.97622 17.075 6.67227V7.26968C17.075 7.6 17.1928 7.91226 17.4069 8.14897C17.6303 8.396 17.9303 8.53203 18.2515 8.53203H18.4255V10.1894H18.2515C18.0066 10.1894 17.8074 9.95161 17.8074 9.65942C17.8074 9.45718 17.6435 9.29321 17.4412 9.29321C17.2389 9.29321 17.075 9.45718 17.075 9.65942C17.075 10.3555 17.6028 10.9218 18.2515 10.9218H18.4255V11.234C18.4255 11.4363 18.5894 11.6002 18.7917 11.6002C18.994 11.6002 19.1579 11.4363 19.1579 11.234V10.9218H19.3319C19.9807 10.9218 20.5084 10.3555 20.5084 9.65942V9.06196C20.5084 8.73164 20.3906 8.41938 20.1765 8.18267C19.9532 7.9356 19.6532 7.79956 19.3319 7.79961H19.1579V6.14233H19.3319ZM18.4254 7.79961H18.2515C18.1398 7.79961 18.0328 7.74922 17.9501 7.65771C17.858 7.55591 17.8073 7.41811 17.8073 7.26968V6.67227C17.8073 6.38008 18.0065 6.14233 18.2515 6.14233H18.4254V7.79961ZM19.3319 8.53203C19.4435 8.53203 19.5505 8.58242 19.6333 8.67388C19.7253 8.77568 19.776 8.91353 19.776 9.06196V9.65942C19.776 9.95161 19.5768 10.1894 19.3319 10.1894H19.1579V8.53203H19.3319Z" fill="#F0F0F0"/>
</g>
<defs>
<clipPath id="clip0_6706_73165">
<rect width="25" height="25" fill="white" transform="translate(0.5)"/>
</clipPath>
</defs>
</svg>
